<svg width="46" height="46" fill="#ffffff" viewBox="0 0 24 24" xmlns="http://www.w3.org/2000/svg">
  <path d="M15.75 12c-.964 0-1.896-.43-2.625-1.211a4.683 4.683 0 0 1-1.219-2.86c-.082-1.154.27-2.215.991-2.988.72-.774 1.728-1.191 2.853-1.191 1.117 0 2.127.425 2.845 1.196.725.78 1.078 1.839.997 2.983-.079 1.083-.511 2.098-1.219 2.86-.728.78-1.659 1.211-2.623 1.211Z"></path>
  <path d="M21.93 20.25H9.572a1.299 1.299 0 0 1-1.032-.5 1.416 1.416 0 0 1-.246-1.21c.395-1.584 1.372-2.898 2.827-3.8 1.292-.8 2.936-1.24 4.63-1.24 1.727 0 3.328.422 4.627 1.221 1.458.897 2.437 2.219 2.83 3.823a1.418 1.418 0 0 1-.25 1.208 1.298 1.298 0 0 1-1.028.498Z"></path>
  <path d="M6.89 12.188c-1.65 0-3.1-1.534-3.234-3.42-.067-.965.234-1.858.843-2.513.603-.648 1.453-1.005 2.39-1.005.938 0 1.782.36 2.388 1.011.614.66.914 1.551.844 2.509-.135 1.884-1.584 3.418-3.231 3.418Z"></path>
  <path d="M9.968 13.66c-.824-.404-1.894-.605-3.077-.605-1.38 0-2.722.36-3.777 1.013-1.195.742-2 1.823-2.325 3.127a1.284 1.284 0 0 0 .225 1.095 1.187 1.187 0 0 0 .942.458h5.203a.375.375 0 0 0 .369-.308.806.806 0 0 1 .019-.088c.397-1.597 1.329-2.946 2.705-3.93a.375.375 0 0 0-.03-.627 3.81 3.81 0 0 0-.254-.136Z"></path>
</svg>